<?xml version="1.0" standalone="no"?>
<!DOCTYPE svg PUBLIC "-//W3C//DTD SVG 20010904//EN"
 "http://www.w3.org/TR/2001/REC-SVG-20010904/DTD/svg10.dtd">
<svg version="1.0" xmlns="http://www.w3.org/2000/svg"
 width="1430.000000pt" height="1451.000000pt" viewBox="0 0 1430.000000 1451.000000"
 preserveAspectRatio="xMidYMid meet">

<g transform="translate(0.000000,1451.000000) scale(0.100000,-0.100000)"
fill="#000000" stroke="none">
<path d="M1650 13681 l0 -599 260 -1901 c143 -1045 260 -1907 260 -1916 0 -14
39 -15 347 -13 l347 3 277 1890 c153 1040 280 1902 283 1918 l6 27 -259 0
-259 0 -12 -102 c-7 -57 -34 -278 -61 -493 -202 -1605 -280 -2227 -290 -2337
-7 -70 -14 -126 -15 -125 -1 1 -21 175 -44 387 -22 212 -66 587 -96 835 -30
247 -88 751 -129 1120 l-75 670 0 353 0 352 4963 -2 4962 -3 0 -6505 0 -6505
-3172 -3 c-3014 -2 -3172 -1 -3177 15 -3 10 -109 352 -236 760 -126 408 -230
748 -230 756 0 8 119 405 265 882 146 476 265 873 265 881 0 12 -43 14 -265
14 l-265 0 -4 -22 c-36 -178 -94 -430 -166 -728 -49 -201 -94 -394 -101 -430
-13 -68 -29 -101 -29 -61 0 13 -50 238 -111 500 -61 262 -123 535 -138 606
l-28 130 -277 3 c-261 2 -277 1 -272 -15 3 -10 123 -413 266 -896 l261 -878
-311 -1010 c-171 -556 -314 -1017 -317 -1025 -4 -12 36 -14 259 -14 l265 0
186 748 c103 411 190 764 193 786 8 46 16 35 33 -49 7 -33 64 -256 126 -495
122 -469 190 -738 225 -892 l22 -98 3634 0 3634 0 0 7040 0 7040 -5500 0
-5500 0 0 -599z"/>
<path d="M4070 13079 c0 -6 -133 -864 -295 -1905 -162 -1042 -295 -1901 -295
-1909 0 -13 37 -15 249 -15 l249 0 10 63 c6 34 18 116 27 182 16 120 41 280
50 323 l5 22 279 0 c214 0 280 -3 283 -12 3 -7 22 -140 44 -295 l39 -283 261
0 261 0 -8 53 c-4 28 -130 882 -279 1897 -148 1015 -272 1855 -275 1868 l-5
22 -300 0 c-212 0 -300 -3 -300 -11z m330 -1499 c38 -314 132 -1036 164 -1252
l13 -88 -229 0 -229 0 6 33 c44 262 140 957 195 1415 16 139 31 256 31 260 3
16 10 -40 49 -368z"/>
<path d="M5590 11170 l0 -1920 260 0 260 0 0 910 0 910 128 0 c70 0 178 5 241
11 361 34 552 175 618 456 16 70 18 129 18 543 0 414 -2 473 -18 543 -42 179
-137 303 -287 375 -168 79 -277 92 -812 92 l-408 0 0 -1920z m868 1465 c32
-10 66 -29 87 -50 61 -62 65 -92 65 -510 0 -421 -3 -445 -67 -507 -59 -57
-106 -70 -280 -76 l-153 -4 0 581 0 581 148 0 c105 0 164 -5 200 -15z"/>
<path d="M7490 11170 l0 -1920 630 0 630 0 0 215 0 215 -375 0 -375 0 0 655 0
655 245 0 245 0 0 215 0 215 -242 2 -243 3 -3 613 -2 612 365 0 365 0 0 220 0
220 -620 0 -620 0 0 -1920z"/>
<path d="M9140 11170 l0 -1920 260 0 260 0 0 865 0 865 104 0 104 0 12 -52
c30 -139 117 -682 180 -1123 38 -269 72 -505 75 -522 l6 -33 279 0 c249 0 280
2 280 16 0 49 -225 1274 -291 1584 -21 102 -39 192 -39 200 0 8 23 29 51 45
116 68 193 178 224 318 14 63 16 147 13 632 -3 555 -4 561 -27 630 -51 154
-131 250 -265 315 -173 85 -295 100 -826 100 l-400 0 0 -1920z m890 1450 c54
-30 84 -85 100 -180 5 -37 10 -239 10 -466 0 -447 -3 -475 -62 -531 -65 -61
-88 -67 -260 -71 l-158 -4 0 642 0 642 163 -4 c151 -3 165 -5 207 -28z"/>
<path d="M2280 8623 c-276 -20 -470 -124 -559 -300 -66 -132 -66 -132 -66
-628 0 -497 2 -518 61 -642 50 -106 119 -185 456 -523 295 -297 373 -388 400
-468 8 -26 13 -149 16 -407 3 -325 1 -375 -14 -413 -20 -54 -70 -89 -150 -104
-122 -22 -235 29 -262 120 -8 27 -12 169 -12 466 l0 426 -251 0 -250 0 4 -487
c4 -535 3 -530 68 -661 39 -80 124 -166 204 -209 227 -120 682 -120 910 0 118
62 207 180 251 332 14 50 18 120 21 438 6 501 -7 621 -85 774 -66 129 -222
303 -583 650 -81 77 -165 164 -188 193 -72 91 -76 116 -76 515 l0 351 25 48
c33 65 80 89 178 94 121 7 197 -36 222 -126 6 -22 10 -183 10 -404 l0 -368
241 0 240 0 -4 443 c-4 483 -4 486 -66 612 -61 124 -156 199 -303 242 -116 33
-285 47 -438 36z"/>
<path d="M10553 8619 c-168 -16 -308 -71 -406 -158 -65 -59 -110 -129 -144
-228 l-28 -78 0 -1490 0 -1490 28 -78 c50 -142 131 -239 253 -304 224 -119
662 -119 889 0 85 45 184 146 224 230 70 146 66 55 66 1642 0 1309 -1 1436
-17 1502 -51 221 -200 370 -425 428 -122 31 -282 40 -440 24z m240 -441 c52
-16 99 -63 115 -115 9 -31 12 -364 12 -1400 0 -1458 1 -1412 -48 -1466 -47
-52 -146 -76 -237 -57 -77 16 -128 66 -145 142 -8 39 -10 415 -8 1413 l3 1360
27 46 c25 42 50 61 108 82 28 10 133 7 173 -5z"/>
<path d="M3330 8365 l0 -215 240 0 240 0 0 -1700 0 -1700 255 0 255 0 0 1700
0 1700 240 0 240 0 0 215 0 215 -735 0 -735 0 0 -215z"/>
<path d="M5122 6898 l3 -1683 22 -78 c48 -167 137 -278 278 -348 100 -48 168
-66 314 -80 126 -13 298 -1 406 26 98 25 220 90 280 150 57 58 113 158 142
260 17 56 18 174 21 1748 l3 1687 -261 0 -260 0 0 -1647 c0 -1577 -1 -1650
-19 -1688 -26 -57 -70 -91 -137 -105 -126 -26 -235 27 -263 127 -8 26 -11 564
-11 1676 l0 1637 -260 0 -261 0 3 -1682z"/>
<path d="M7060 6665 l0 -1915 443 0 c396 0 452 2 535 19 199 42 335 138 413
295 73 147 70 81 67 1637 l-3 1384 -27 81 c-72 212 -230 347 -461 395 -82 17
-139 19 -529 19 l-438 0 0 -1915z m843 1461 c50 -24 84 -77 97 -147 7 -37 10
-498 8 -1355 l-3 -1299 -22 -42 c-47 -86 -100 -107 -278 -108 l-130 0 -3 1488
-2 1489 147 -4 c120 -3 155 -7 186 -22z"/>
<path d="M8980 6665 l0 -1915 260 0 260 0 0 1915 0 1915 -260 0 -260 0 0
-1915z"/>
<path d="M1610 2120 l0 -1920 236 0 237 0 -7 1208 c-3 664 -9 1241 -12 1282
-4 41 -4 73 -1 70 3 -3 92 -566 197 -1250 105 -685 193 -1260 196 -1277 l6
-33 223 0 223 0 6 27 c3 16 69 440 146 943 77 503 167 1070 200 1260 l59 345
-4 -140 c-3 -77 -8 -656 -11 -1287 l-7 -1148 237 0 236 0 0 1920 0 1920 -349
0 -349 0 -11 -77 c-6 -43 -38 -285 -71 -538 -124 -940 -302 -2185 -311 -2185
-3 0 -9 26 -13 58 -3 31 -61 449 -127 927 -66 479 -148 1082 -183 1340 l-61
470 -343 3 -342 2 0 -1920z"/>
</g>
</svg>
