<?xml version="1.0" encoding="UTF-8"?>
<svg xmlns="http://www.w3.org/2000/svg" xmlns:xlink="http://www.w3.org/1999/xlink" width="1000px" height="1015px" viewBox="0 0 1000 1014" version="1.1">
<g id="surface1">
<path style=" stroke:none;fill-rule:nonzero;fill:rgb(0%,0%,0%);fill-opacity:1;" d="M 115.351562 57.925781 L 115.351562 99.777344 L 133.527344 232.609375 C 143.527344 305.625 151.707031 365.855469 151.707031 366.484375 C 151.707031 367.464844 154.433594 367.53125 175.964844 367.394531 L 200.222656 367.183594 L 219.589844 235.125 C 230.285156 162.457031 239.164062 102.222656 239.375 101.105469 L 239.792969 99.21875 L 203.578125 99.21875 L 202.742188 106.347656 C 202.25 110.328125 200.363281 125.773438 198.476562 140.792969 C 184.355469 252.941406 178.902344 296.402344 178.203125 304.089844 C 177.710938 308.980469 177.222656 312.890625 177.152344 312.824219 C 177.082031 312.753906 175.683594 300.59375 174.078125 285.78125 C 172.539062 270.96875 169.464844 244.765625 167.367188 227.4375 C 165.269531 210.179688 161.214844 174.960938 158.347656 149.179688 L 153.105469 102.363281 L 153.105469 53.105469 L 500.070312 53.242188 L 846.964844 53.453125 L 846.964844 962.503906 L 625.210938 962.714844 C 414.5 962.851562 403.453125 962.78125 403.105469 961.664062 C 402.894531 960.964844 395.484375 937.070312 386.605469 908.5625 C 377.796875 880.054688 370.527344 856.296875 370.527344 855.738281 C 370.527344 855.179688 378.84375 827.4375 389.050781 794.109375 C 399.257812 760.847656 407.578125 733.109375 407.578125 732.550781 C 407.578125 731.710938 404.570312 731.574219 389.050781 731.574219 L 370.527344 731.574219 L 370.246094 733.109375 C 367.730469 745.546875 363.675781 763.15625 358.640625 783.976562 C 355.214844 798.023438 352.070312 811.507812 351.578125 814.023438 C 350.671875 818.773438 349.550781 821.078125 349.550781 818.285156 C 349.550781 817.375 346.058594 801.65625 341.792969 783.347656 C 337.527344 765.042969 333.195312 745.964844 332.144531 741.003906 L 330.1875 731.921875 L 310.820312 731.710938 C 292.574219 731.574219 291.457031 731.640625 291.804688 732.761719 C 292.015625 733.460938 300.40625 761.617188 310.402344 795.367188 L 328.648438 856.714844 L 306.90625 927.289062 C 294.953125 966.136719 284.957031 998.347656 284.746094 998.90625 C 284.464844 999.746094 287.261719 999.886719 302.851562 999.886719 L 321.378906 999.886719 L 334.382812 947.621094 C 341.582031 918.902344 347.664062 894.238281 347.875 892.699219 C 348.433594 889.484375 348.992188 890.253906 350.183594 896.125 C 350.671875 898.429688 354.65625 914.011719 358.992188 930.710938 C 367.519531 963.480469 372.273438 982.277344 374.71875 993.039062 L 376.257812 999.886719 L 884.367188 999.886719 L 884.367188 16.070312 L 115.351562 16.070312 Z M 115.351562 57.925781 "/>
<path style=" stroke:none;fill-rule:nonzero;fill:rgb(0%,0%,0%);fill-opacity:1;" d="M 284.535156 99.988281 C 284.535156 100.40625 275.238281 160.359375 263.914062 233.097656 C 252.585938 305.90625 243.289062 365.925781 243.289062 366.484375 C 243.289062 367.394531 245.875 367.53125 260.695312 367.53125 L 278.105469 367.53125 L 278.804688 363.132812 C 279.222656 360.753906 280.0625 355.027344 280.691406 350.414062 C 281.808594 342.03125 283.558594 330.851562 284.1875 327.84375 L 284.535156 326.308594 L 304.039062 326.308594 C 319 326.308594 323.617188 326.515625 323.824219 327.144531 C 324.035156 327.636719 325.363281 336.929688 326.902344 347.757812 L 329.628906 367.53125 L 366.121094 367.53125 L 365.5625 363.828125 C 365.28125 361.875 356.472656 302.203125 346.058594 231.28125 C 335.710938 160.359375 327.042969 101.664062 326.832031 100.757812 L 326.480469 99.21875 L 305.507812 99.21875 C 290.6875 99.21875 284.535156 99.429688 284.535156 99.988281 Z M 307.605469 204.726562 C 310.261719 226.667969 316.835938 277.117188 319.070312 292.210938 L 319.980469 298.359375 L 287.960938 298.359375 L 288.382812 296.054688 C 291.457031 277.746094 298.167969 229.183594 302.011719 197.183594 C 303.132812 187.46875 304.179688 179.292969 304.179688 179.015625 C 304.390625 177.898438 304.878906 181.808594 307.605469 204.726562 Z M 307.605469 204.726562 "/>
<path style=" stroke:none;fill-rule:nonzero;fill:rgb(0%,0%,0%);fill-opacity:1;" d="M 390.800781 233.375 L 390.800781 367.53125 L 427.152344 367.53125 L 427.152344 240.363281 L 436.101562 240.363281 C 440.996094 240.363281 448.546875 240.015625 452.949219 239.59375 C 478.1875 237.21875 491.539062 227.367188 496.15625 207.734375 C 497.273438 202.84375 497.414062 198.71875 497.414062 169.792969 C 497.414062 140.863281 497.273438 136.742188 496.15625 131.851562 C 493.21875 119.34375 486.578125 110.679688 476.089844 105.648438 C 464.34375 100.128906 456.726562 99.21875 419.324219 99.21875 L 390.800781 99.21875 Z M 451.480469 131.011719 C 453.71875 131.710938 456.097656 133.039062 457.5625 134.507812 C 461.828125 138.839844 462.109375 140.933594 462.109375 170.140625 C 462.109375 199.558594 461.898438 201.234375 457.425781 205.566406 C 453.300781 209.550781 450.015625 210.457031 437.847656 210.878906 L 427.152344 211.15625 L 427.152344 129.964844 L 437.5 129.964844 C 444.839844 129.964844 448.964844 130.3125 451.480469 131.011719 Z M 451.480469 131.011719 "/>
<path style=" stroke:none;fill-rule:nonzero;fill:rgb(0%,0%,0%);fill-opacity:1;" d="M 523.628906 233.375 L 523.628906 367.53125 L 611.71875 367.53125 L 611.71875 337.488281 L 559.285156 337.488281 L 559.285156 245.953125 L 593.539062 245.953125 L 593.539062 215.910156 L 576.621094 215.769531 L 559.632812 215.558594 L 559.425781 172.726562 L 559.285156 129.964844 L 610.320312 129.964844 L 610.320312 99.21875 L 523.628906 99.21875 Z M 523.628906 233.375 "/>
<path style=" stroke:none;fill-rule:nonzero;fill:rgb(0%,0%,0%);fill-opacity:1;" d="M 638.980469 233.375 L 638.980469 367.53125 L 675.335938 367.53125 L 675.335938 246.652344 L 689.878906 246.652344 L 690.714844 250.285156 C 692.8125 260 698.894531 297.9375 703.300781 328.753906 C 705.957031 347.550781 708.332031 364.039062 708.542969 365.226562 L 708.960938 367.53125 L 728.46875 367.53125 C 745.875 367.53125 748.042969 367.394531 748.042969 366.414062 C 748.042969 362.992188 732.3125 277.398438 727.699219 255.734375 C 726.230469 248.609375 724.972656 242.320312 724.972656 241.761719 C 724.972656 241.203125 726.578125 239.734375 728.539062 238.617188 C 736.648438 233.867188 742.03125 226.179688 744.199219 216.398438 C 745.175781 211.996094 745.316406 206.125 745.105469 172.238281 C 744.898438 133.457031 744.828125 133.039062 743.21875 128.21875 C 739.652344 117.457031 734.058594 110.75 724.691406 106.207031 C 712.597656 100.269531 704.070312 99.21875 666.945312 99.21875 L 638.980469 99.21875 Z M 701.203125 132.058594 C 704.976562 134.15625 707.074219 138 708.195312 144.636719 C 708.542969 147.222656 708.894531 161.335938 708.894531 177.199219 C 708.894531 208.433594 708.683594 210.386719 704.558594 214.300781 C 700.015625 218.5625 698.40625 218.984375 686.382812 219.261719 L 675.335938 219.542969 L 675.335938 129.824219 L 686.730469 130.105469 C 697.289062 130.3125 698.265625 130.453125 701.203125 132.058594 Z M 701.203125 132.058594 "/>
<path style=" stroke:none;fill-rule:nonzero;fill:rgb(0%,0%,0%);fill-opacity:1;" d="M 159.394531 411.34375 C 140.101562 412.742188 126.539062 420.007812 120.316406 432.304688 C 115.703125 441.527344 115.703125 441.527344 115.703125 476.1875 C 115.703125 510.914062 115.839844 512.378906 119.964844 521.042969 C 123.460938 528.449219 128.285156 533.972656 151.84375 557.589844 C 172.46875 578.339844 177.921875 584.699219 179.808594 590.289062 C 180.367188 592.105469 180.71875 600.699219 180.929688 618.726562 C 181.136719 641.4375 181 644.929688 179.949219 647.585938 C 178.550781 651.359375 175.054688 653.804688 169.464844 654.851562 C 160.933594 656.390625 153.035156 652.824219 151.148438 646.46875 C 150.585938 644.582031 150.308594 634.660156 150.308594 613.90625 L 150.308594 584.140625 L 115.28125 584.140625 L 115.5625 618.167969 C 115.839844 655.550781 115.773438 655.199219 120.316406 664.355469 C 123.042969 669.945312 128.984375 675.953125 134.578125 678.957031 C 150.449219 687.34375 182.257812 687.34375 198.195312 678.957031 C 206.445312 674.625 212.667969 666.378906 215.742188 655.761719 C 216.722656 652.265625 217.003906 647.375 217.210938 625.15625 C 217.632812 590.148438 216.722656 581.765625 211.269531 571.074219 C 206.65625 562.058594 195.75 549.902344 170.511719 525.65625 C 164.847656 520.277344 158.976562 514.195312 157.367188 512.171875 C 152.335938 505.8125 152.054688 504.066406 152.054688 476.1875 L 152.054688 451.660156 L 153.804688 448.304688 C 156.109375 443.765625 159.394531 442.085938 166.246094 441.738281 C 174.707031 441.25 180.019531 444.253906 181.765625 450.542969 C 182.1875 452.078125 182.464844 463.328125 182.464844 478.769531 L 182.464844 504.484375 L 216.09375 504.484375 L 215.8125 473.53125 C 215.535156 439.78125 215.535156 439.574219 211.199219 430.769531 C 206.933594 422.105469 200.292969 416.863281 190.015625 413.859375 C 181.90625 411.554688 170.09375 410.574219 159.394531 411.34375 Z M 159.394531 411.34375 "/>
<path style=" stroke:none;fill-rule:nonzero;fill:rgb(0%,0%,0%);fill-opacity:1;" d="M 737.765625 411.625 C 726.019531 412.742188 716.234375 416.585938 709.382812 422.664062 C 704.835938 426.785156 701.691406 431.675781 699.316406 438.59375 L 697.355469 444.042969 L 697.355469 652.265625 L 699.316406 657.714844 C 702.808594 667.636719 708.472656 674.417969 717.003906 678.957031 C 732.664062 687.273438 763.28125 687.273438 779.152344 678.957031 C 785.09375 675.8125 792.015625 668.757812 794.8125 662.886719 C 799.707031 652.6875 799.425781 659.042969 799.425781 548.15625 C 799.425781 456.691406 799.355469 447.816406 798.238281 443.207031 C 794.671875 427.765625 784.257812 417.351562 768.527344 413.300781 C 759.996094 411.132812 748.8125 410.503906 737.765625 411.625 Z M 754.542969 442.4375 C 758.179688 443.554688 761.464844 446.839844 762.582031 450.472656 C 763.214844 452.636719 763.421875 475.90625 763.421875 548.296875 C 763.421875 650.171875 763.492188 646.957031 760.066406 650.730469 C 756.78125 654.363281 749.859375 656.039062 743.5 654.710938 C 738.113281 653.59375 734.550781 650.101562 733.359375 644.789062 C 732.800781 642.066406 732.664062 615.792969 732.800781 546.058594 L 733.011719 451.03125 L 734.898438 447.816406 C 736.648438 444.882812 738.394531 443.554688 742.449219 442.085938 C 744.40625 441.390625 751.746094 441.597656 754.542969 442.4375 Z M 754.542969 442.4375 "/>
<path style=" stroke:none;fill-rule:nonzero;fill:rgb(0%,0%,0%);fill-opacity:1;" d="M 232.800781 429.371094 L 232.800781 444.394531 L 266.359375 444.394531 L 266.359375 681.960938 L 302.011719 681.960938 L 302.011719 444.394531 L 335.570312 444.394531 L 335.570312 414.347656 L 232.800781 414.347656 Z M 232.800781 429.371094 "/>
<path style=" stroke:none;fill-rule:nonzero;fill:rgb(0%,0%,0%);fill-opacity:1;" d="M 358.082031 531.875 L 358.292969 649.472656 L 359.828125 654.921875 C 363.183594 666.589844 369.40625 674.347656 379.265625 679.238281 C 386.253906 682.589844 391.007812 683.847656 401.214844 684.828125 C 410.023438 685.734375 422.050781 684.898438 429.601562 683.011719 C 436.453125 681.265625 444.980469 676.722656 449.175781 672.53125 C 453.160156 668.476562 457.074219 661.488281 459.101562 654.363281 C 460.289062 650.449219 460.359375 642.203125 460.570312 532.222656 L 460.78125 414.347656 L 424.355469 414.347656 L 424.355469 529.429688 C 424.355469 639.621094 424.285156 644.71875 423.027344 647.375 C 421.210938 651.359375 418.136719 653.734375 413.449219 654.710938 C 404.640625 656.527344 397.023438 652.824219 395.0625 645.839844 C 394.503906 644.019531 394.296875 606.429688 394.296875 528.730469 L 394.296875 414.347656 L 357.871094 414.347656 Z M 358.082031 531.875 "/>
<path style=" stroke:none;fill-rule:nonzero;fill:rgb(0%,0%,0%);fill-opacity:1;" d="M 493.566406 548.15625 L 493.566406 681.960938 L 524.539062 681.960938 C 552.222656 681.960938 556.136719 681.824219 561.941406 680.636719 C 575.851562 677.699219 585.359375 670.992188 590.8125 660.023438 C 595.917969 649.75 595.707031 654.363281 595.496094 545.640625 L 595.289062 448.933594 L 593.402344 443.277344 C 588.367188 428.460938 577.320312 419.03125 561.171875 415.675781 C 555.4375 414.488281 551.453125 414.347656 524.1875 414.347656 L 493.566406 414.347656 Z M 552.503906 446.070312 C 556 447.746094 558.375 451.449219 559.285156 456.34375 C 559.773438 458.925781 559.984375 491.140625 559.84375 551.019531 L 559.632812 641.785156 L 558.09375 644.71875 C 554.808594 650.730469 551.105469 652.195312 538.660156 652.265625 L 529.570312 652.265625 L 529.363281 548.296875 L 529.222656 444.253906 L 539.5 444.535156 C 547.890625 444.742188 550.335938 445.023438 552.503906 446.070312 Z M 552.503906 446.070312 "/>
<path style=" stroke:none;fill-rule:nonzero;fill:rgb(0%,0%,0%);fill-opacity:1;" d="M 627.796875 548.15625 L 627.796875 681.960938 L 664.148438 681.960938 L 664.148438 414.347656 L 627.796875 414.347656 Z M 627.796875 548.15625 "/>
<path style=" stroke:none;fill-rule:nonzero;fill:rgb(0%,0%,0%);fill-opacity:1;" d="M 112.554688 865.730469 L 112.554688 999.886719 L 145.625 999.886719 L 145.132812 915.480469 C 144.925781 869.082031 144.503906 828.765625 144.296875 825.902344 C 144.015625 823.035156 144.015625 820.800781 144.226562 821.011719 C 144.433594 821.21875 150.65625 860.558594 157.996094 908.351562 C 165.339844 956.214844 171.492188 996.390625 171.699219 997.578125 L 172.121094 999.886719 L 203.300781 999.886719 L 203.71875 998 C 203.929688 996.882812 208.542969 967.253906 213.925781 932.109375 C 219.308594 896.960938 225.601562 857.34375 227.910156 844.066406 L 232.03125 819.960938 L 231.753906 829.746094 C 231.542969 835.125 231.195312 875.582031 230.984375 919.671875 L 230.496094 999.886719 L 263.5625 999.886719 L 263.5625 731.574219 L 214.765625 731.574219 L 213.996094 736.953125 C 213.578125 739.957031 211.339844 756.867188 209.03125 774.542969 C 200.363281 840.226562 187.917969 927.21875 187.289062 927.21875 C 187.082031 927.21875 186.660156 925.402344 186.382812 923.164062 C 186.171875 921 182.117188 891.792969 177.503906 858.390625 C 172.890625 824.921875 167.15625 782.789062 164.710938 764.761719 L 160.445312 731.921875 L 136.464844 731.710938 L 112.554688 731.574219 Z M 112.554688 865.730469 "/>
</g>
</svg>
